<svg width="777" height="156" viewBox="0 0 777 156" fill="none" xmlns="http://www.w3.org/2000/svg">
<g style="mix-blend-mode:luminosity">
<path d="M126.563 51.0528C129.048 47.4985 133.071 45.3336 137.407 45.2182L185.947 43.9256C195.693 43.666 202.573 53.3981 199.077 62.4997L167.883 143.709C165.174 150.759 157.263 154.279 150.213 151.571L92.4945 129.4C84.1976 126.213 81.0977 116.082 86.1904 108.798L126.563 51.0528Z" fill="#B3B3B3"/>
<path d="M98.7522 31.7183C101.789 27.3752 106.705 24.7298 112.003 24.5887L171.316 23.0092C183.226 22.6921 191.632 34.584 187.36 45.7057L149.242 144.938C145.933 153.553 136.266 157.855 127.651 154.545L57.1228 127.454C46.9845 123.559 43.1966 111.18 49.4196 102.28L98.7522 31.7183Z" fill="#565656"/>
<path d="M61.3457 8.98807C65.2997 3.55204 71.6159 0.335937 78.3379 0.335938L152.496 0.335938C167.238 0.335938 177.396 15.1206 172.11 28.8821L128.828 141.56C124.667 152.393 112.512 157.802 101.679 153.641L13.4856 119.763C0.58598 114.808 -4.10062 98.9643 4.02783 87.7892L61.3457 8.98807Z" fill="white"/>
</g>
<path d="M262.236 122.44C255.837 122.44 250.277 121.08 245.558 118.36C240.838 115.561 237.159 111.641 234.519 106.601C231.959 101.562 230.68 95.6826 230.68 88.9633C230.68 82.244 231.959 76.4046 234.519 71.4451C237.159 66.4056 240.838 62.486 245.558 59.6863C250.277 56.8866 255.837 55.4868 262.236 55.4868C267.676 55.4868 272.515 56.4467 276.755 58.3665C280.994 60.2863 284.434 63.046 287.074 66.6456C289.793 70.1652 291.473 74.4848 292.113 79.6043L276.275 80.4442C275.635 76.3646 274.035 73.2849 271.475 71.2051C268.996 69.0454 265.916 67.9655 262.236 67.9655C257.277 67.9655 253.437 69.8453 250.717 73.6049C247.998 77.2845 246.638 82.404 246.638 88.9633C246.638 95.6026 247.998 100.762 250.717 104.442C253.437 108.121 257.277 109.961 262.236 109.961C265.996 109.961 269.116 108.881 271.595 106.721C274.155 104.562 275.715 101.202 276.275 96.6425L292.113 97.3624C291.473 102.482 289.833 106.921 287.194 110.681C284.554 114.441 281.114 117.36 276.875 119.44C272.635 121.44 267.756 122.44 262.236 122.44ZM298.03 121V56.9266H312.429L313.029 74.6848L311.709 74.4448C312.669 68.2854 314.468 63.8459 317.108 61.1262C319.828 58.3265 323.507 56.9266 328.147 56.9266H334.026V70.1252H328.027C324.747 70.1252 322.028 70.6052 319.868 71.5651C317.708 72.525 316.068 74.0448 314.948 76.1246C313.908 78.1244 313.388 80.7641 313.388 84.0438V121H298.03ZM365.24 122.44C358.841 122.44 353.281 121.08 348.562 118.36C343.842 115.561 340.203 111.641 337.643 106.601C335.083 101.562 333.803 95.6826 333.803 88.9633C333.803 82.244 335.083 76.4046 337.643 71.4451C340.203 66.4056 343.802 62.486 348.442 59.6863C353.161 56.8866 358.641 55.4868 364.88 55.4868C370.959 55.4868 376.279 56.8466 380.838 59.5663C385.478 62.286 389.038 66.2056 391.517 71.3251C393.997 76.4446 395.237 82.604 395.237 89.8032V93.2829H349.762C350.082 98.8823 351.601 103.122 354.321 106.002C357.121 108.801 360.8 110.201 365.36 110.201C368.8 110.201 371.639 109.441 373.879 107.921C376.199 106.322 377.799 104.122 378.679 101.322L394.397 102.282C392.637 108.521 389.158 113.441 383.958 117.04C378.839 120.64 372.599 122.44 365.24 122.44ZM349.762 82.9639H379.399C379.079 77.7645 377.599 73.9248 374.959 71.4451C372.319 68.8854 368.96 67.6055 364.88 67.6055C360.8 67.6055 357.401 68.9254 354.681 71.5651C352.041 74.2048 350.402 78.0044 349.762 82.9639ZM413.655 121L394.337 56.9266H410.055L422.534 103.602L435.373 56.9266H448.811L461.77 103.602L474.249 56.9266H489.967L470.649 121H454.811L442.092 78.0444L429.493 121H413.655ZM515.47 122.44C510.031 122.44 505.311 121.08 501.312 118.36C497.392 115.641 494.352 111.761 492.193 106.721C490.033 101.682 488.953 95.7626 488.953 88.9633C488.953 82.164 490.033 76.2446 492.193 71.2051C494.352 66.1656 497.432 62.286 501.432 59.5663C505.431 56.8466 510.111 55.4868 515.47 55.4868C519.95 55.4868 523.869 56.4067 527.229 58.2465C530.669 60.0863 533.268 62.686 535.028 66.0457V35.8088H550.387V121H535.748L535.388 111.521C533.628 114.961 530.989 117.64 527.469 119.56C523.949 121.48 519.95 122.44 515.47 122.44ZM520.15 109.961C523.349 109.961 526.029 109.161 528.189 107.561C530.429 105.962 532.108 103.602 533.228 100.482C534.428 97.2824 535.028 93.4428 535.028 88.9633C535.028 84.4038 534.428 80.5642 533.228 77.4445C532.108 74.3248 530.429 71.9651 528.189 70.3652C526.029 68.7654 523.349 67.9655 520.15 67.9655C515.51 67.9655 511.791 69.8453 508.991 73.6049C506.271 77.2845 504.911 82.404 504.911 88.9633C504.911 95.3626 506.271 100.482 508.991 104.322C511.791 108.081 515.51 109.961 520.15 109.961ZM588.942 122.44C582.543 122.44 576.983 121.08 572.264 118.36C567.544 115.561 563.905 111.641 561.345 106.601C558.785 101.562 557.505 95.6826 557.505 88.9633C557.505 82.244 558.785 76.4046 561.345 71.4451C563.905 66.4056 567.504 62.486 572.144 59.6863C576.863 56.8866 582.343 55.4868 588.582 55.4868C594.661 55.4868 599.981 56.8466 604.54 59.5663C609.18 62.286 612.74 66.2056 615.219 71.3251C617.699 76.4446 618.939 82.604 618.939 89.8032V93.2829H573.464C573.784 98.8823 575.303 103.122 578.023 106.002C580.823 108.801 584.502 110.201 589.062 110.201C592.502 110.201 595.341 109.441 597.581 107.921C599.901 106.322 601.501 104.122 602.381 101.322L618.099 102.282C616.339 108.521 612.859 113.441 607.66 117.04C602.541 120.64 596.301 122.44 588.942 122.44ZM573.464 82.9639H603.101C602.781 77.7645 601.301 73.9248 598.661 71.4451C596.021 68.8854 592.662 67.6055 588.582 67.6055C584.502 67.6055 581.103 68.9254 578.383 71.5651C575.743 74.2048 574.103 78.0044 573.464 82.9639ZM653.982 122.44C647.582 122.44 642.023 121.08 637.304 118.36C632.584 115.561 628.904 111.641 626.265 106.601C623.705 101.562 622.425 95.6826 622.425 88.9633C622.425 82.244 623.705 76.4046 626.265 71.4451C628.904 66.4056 632.584 62.486 637.304 59.6863C642.023 56.8866 647.582 55.4868 653.982 55.4868C659.421 55.4868 664.261 56.4467 668.5 58.3665C672.74 60.2863 676.18 63.046 678.819 66.6456C681.539 70.1652 683.219 74.4848 683.859 79.6043L668.02 80.4442C667.38 76.3646 665.781 73.2849 663.221 71.2051C660.741 69.0454 657.661 67.9655 653.982 67.9655C649.022 67.9655 645.183 69.8453 642.463 73.6049C639.743 77.2845 638.383 82.404 638.383 88.9633C638.383 95.6026 639.743 100.762 642.463 104.442C645.183 108.121 649.022 109.961 653.982 109.961C657.741 109.961 660.861 108.881 663.341 106.721C665.901 104.562 667.46 101.202 668.02 96.6425L683.859 97.3624C683.219 102.482 681.579 106.921 678.939 110.681C676.3 114.441 672.86 117.36 668.62 119.44C664.381 121.44 659.501 122.44 653.982 122.44ZM689.776 121V35.8088H705.134V85.8436L731.411 56.9266H750.369L725.292 83.5639L751.209 121H733.931L715.213 92.6829L705.134 103.362V121H689.776ZM754.257 121V104.202H771.775V121H754.257Z" fill="white"/>
</svg>
