<svg width="200" height="156" viewBox="0 0 200 156" fill="none" xmlns="http://www.w3.org/2000/svg">
<g style="mix-blend-mode:luminosity">
<path d="M126.563 50.7169C129.048 47.1626 133.071 44.9977 137.407 44.8822L185.947 43.5897C195.693 43.3301 202.573 53.0621 199.077 62.1638L167.883 143.373C165.174 150.423 157.263 153.943 150.213 151.235L92.4945 129.064C84.1976 125.877 81.0977 115.747 86.1904 108.462L126.563 50.7169Z" fill="#B3B3B3"/>
<path d="M98.7522 31.3823C101.789 27.0392 106.705 24.3938 112.003 24.2528L171.316 22.6733C183.226 22.3562 191.632 34.2481 187.36 45.3698L149.242 144.602C145.933 153.217 136.266 157.519 127.651 154.209L57.1228 127.118C46.9845 123.223 43.1966 110.845 49.4196 101.944L98.7522 31.3823Z" fill="#565656"/>
<path d="M61.3457 8.65213C65.2997 3.2161 71.6159 -2.10713e-08 78.3379 0L152.496 2.32551e-07C167.238 2.78778e-07 177.396 14.7847 172.11 28.5462L128.828 141.224C124.667 152.057 112.512 157.466 101.679 153.305L13.4856 119.427C0.58598 114.472 -4.10062 98.6283 4.02783 87.4533L61.3457 8.65213Z" fill="black"/>
</g>
</svg>
